<mxfile host="app.diagrams.net" modified="2023-06-07T03:49:43.604Z" agent="Mozilla/5.0 (Windows NT 10.0; Win64; x64) AppleWebKit/537.36 (KHTML, like Gecko) Chrome/114.0.0.0 Safari/537.36" etag="AbIDDLVCsC2Vor4JL9N5" version="21.3.7" type="github">
  <diagram name="第 1 页" id="zNS4rei6D908oT3K1dFm">
    <mxGraphModel dx="1434" dy="700" grid="1" gridSize="10" guides="1" tooltips="1" connect="1" arrows="1" fold="1" page="1" pageScale="1" pageWidth="827" pageHeight="1169" math="0" shadow="0">
      <root>
        <mxCell id="0" />
        <mxCell id="1" parent="0" />
      </root>
    </mxGraphModel>
  </diagram>
</mxfile>
